<?xml version="1.0" encoding="UTF-8"?>
<svg version="1.0" viewBox="0 0 120 120" xmlns="http://www.w3.org/2000/svg" xmlns:xlink="http://www.w3.org/1999/xlink">
<g transform="translate(0,-280)">
<rect x="6.7761e-7" y="280" width="120" height="120" rx="20" ry="20" fill="#009000"/>
<rect x="6.7761e-7" y="280" width="120" height="120" rx="20" ry="20" fill="#d33d1a"/>
<path d="m20.055 327.49c20.02-1.9568 39.93-2.0102 60.043-0.05357 12.523 1.2291 12.463 8.75 12.456 17.5s-5.1749 17.721-20.101 17.598c-15.104-0.12475-16.195-12.705-22.462-12.688s-7.6183 12.666-22.423 12.679c-15.073 0.01298-20.06-8.8929-20.049-17.607s-0.072843-16.187 12.537-17.429z" fill="#fff" fill-rule="evenodd"/>
<path d="m66.609 368.44c1.0905 0.52045 11.504 5.4547 15.876 7.6085 0.89896 0.44287 1.7158 0.58761 2.3023 0.59993 0.61808 0.01298 1.4727-0.16073 2.5273-0.67861 1.0408-0.51108 9.6047-4.7964 9.6047-4.7964s1.318-0.49288 2.2847-2.522c0.9667-2.0291 0.76648-2.6702 0.81899-4.5919 0.05817-2.1285-0.024189-67.866 0.02078-69.037 0.08999-2.3438 2.5214-5.0674 5.0214-5.0678 2.5-4.4e-4 4.9837 2.5513 4.9786 5.0661-0.00257 1.2567 0.04092 68.921 0.04734 73.468 2e-3 1.4211-0.43279 4.597-1.1841 5.9487-0.74376 1.338-1.806 2.8243-3.8827 3.8554-4.3795 2.1744-13.296 6.6342-15.637 7.787-0.92527 0.45559-2.9919 1.0578-4.4679 1.0461-1.4128-0.01173-3.1162-0.13567-4.3768-0.77108-5.2755-2.6592-17.13-8.2619-18.209-8.7998-2.1299-1.0621-3.4758-4.5185-2.4068-6.7974 1.069-2.2789 4.5017-3.359 6.6828-2.3181z" fill="#fff" fill-rule="evenodd"/>
</g>
</svg>
